# xmcd CD database file
#
# Track frame offsets:
#	150
#	9242
#	22063
#	36621
#	45926
#	58854
#	76236
#	86349
#	101117
#	113244
#	129788
#	139937
#
# Disc length: 2031 seconds
#
# Revision: 0
# Processed by: cddbd v1.5.2PL0 Copyright (c) Steve Scherf et al.
# Submitted via: CDex 1.51
#
DISCID=9507ed0c
DTITLE=Ronee Blakley - Welcome
DYEAR=1975
DGENRE=Country
TTITLE0=American Beauty
TTITLE1=I Was Born to Love You (Naci Para Amarte)
TTITLE2=Please
TTITLE3=Young Man
TTITLE4=Idaho Home
TTITLE5=She Lays it on the Line
TTITLE6=Nobody's Bride
TTITLE7=If I Saw You in the Morning
TTITLE8=Tapedeck
TTITLE9=Need a New Sun Rising
TTITLE10=Locked Behind My True Love's Door
TTITLE11=Welcome
EXTD=YEAR: 1975
EXTT0=
EXTT1=
EXTT2=
EXTT3=
EXTT4=
EXTT5=
EXTT6=
EXTT7=
EXTT8=
EXTT9=
EXTT10=
EXTT11=
PLAYORDER=
